<svg xmlns="http://www.w3.org/2000/svg" xmlns:xlink="http://www.w3.org/1999/xlink" width="800" zoomAndPan="magnify" viewBox="0 0 600 599.999999" height="800" preserveAspectRatio="xMidYMid meet" version="1.0"><defs><g/><clipPath id="ebd04d6307"><path d="M 73.175781 298 L 300 298 L 300 524.875 L 73.175781 524.875 Z M 73.175781 298 " clip-rule="nonzero"/></clipPath><clipPath id="fb64d37744"><path d="M 398 217 L 526.925781 217 L 526.925781 495 L 398 495 Z M 398 217 " clip-rule="nonzero"/></clipPath></defs><rect x="-60" width="720" fill="#ffffff" y="-60" height="719.999999" fill-opacity="1"/><rect x="-60" width="720" fill="#000000" y="-60" height="719.999999" fill-opacity="1"/><path fill="#00c2cb" d="M 299.996094 498.832031 C 189.308594 498.832031 99.246094 408.773438 99.246094 298.09375 C 99.257812 187.40625 189.308594 97.34375 299.996094 97.34375 C 410.675781 97.34375 500.734375 187.40625 500.734375 298.09375 C 500.734375 408.773438 410.6875 498.832031 299.996094 498.832031 Z M 299.996094 104.308594 C 193.140625 104.308594 106.210938 191.238281 106.210938 298.09375 C 106.210938 404.9375 193.140625 491.867188 299.996094 491.867188 C 406.839844 491.867188 493.769531 404.9375 493.769531 298.09375 C 493.78125 191.238281 406.851562 104.308594 299.996094 104.308594 Z M 299.996094 104.308594 " fill-opacity="1" fill-rule="nonzero"/><path fill="#00c2cb" d="M 392.425781 123.804688 C 374.757812 114.402344 355.816406 107.777344 336.117188 104.148438 L 341.484375 75.046875 C 364.152344 79.242188 385.972656 86.855469 406.308594 97.683594 Z M 392.425781 123.804688 " fill-opacity="1" fill-rule="nonzero"/><path fill="#00c2cb" d="M 113.117188 234.832031 L 85.09375 225.351562 C 108.296875 156.75 163.425781 102.957031 232.550781 81.46875 L 241.339844 109.71875 C 181.234375 128.40625 133.292969 175.179688 113.117188 234.832031 Z M 113.117188 234.832031 " fill-opacity="1" fill-rule="nonzero"/><g clip-path="url(#ebd04d6307)"><path fill="#00c2cb" d="M 299.996094 524.914062 C 174.925781 524.914062 73.175781 423.164062 73.175781 298.09375 L 102.753906 298.09375 C 102.753906 406.84375 191.234375 495.328125 299.996094 495.328125 Z M 299.996094 524.914062 " fill-opacity="1" fill-rule="nonzero"/></g><g clip-path="url(#fb64d37744)"><path fill="#00c2cb" d="M 412.75 494.953125 L 398.019531 469.289062 C 459.214844 434.164062 497.230469 368.566406 497.230469 298.09375 C 497.230469 274.027344 492.941406 250.527344 484.503906 228.230469 L 512.167969 217.753906 C 521.886719 243.40625 526.808594 270.433594 526.808594 298.09375 C 526.820312 379.136719 483.109375 454.578125 412.75 494.953125 Z M 412.75 494.953125 " fill-opacity="1" fill-rule="nonzero"/></g><g fill="#ffffff" fill-opacity="1"><g transform="translate(161.996529, 341.075014)"><g><path d="M 12.796875 -112 L 43.203125 -112 L 43.203125 -71.203125 L 84 -71.203125 L 84 -112 L 114.40625 -112 L 114.40625 0 L 84 0 L 84 -42.40625 L 43.203125 -42.40625 L 43.203125 0 L 12.796875 0 Z M 12.796875 -112 "/></g></g></g><g fill="#ffffff" fill-opacity="1"><g transform="translate(289.193418, 341.075014)"><g><path d="M 12.796875 -112 L 40 -112 L 74.40625 -68.796875 L 108.796875 -112 L 136 -112 L 136 0 L 105.59375 0 L 105.59375 -66.40625 L 74.40625 -27.203125 L 43.203125 -66.40625 L 43.203125 0 L 12.796875 0 Z M 12.796875 -112 "/></g></g></g><g fill="#ffffff" fill-opacity="1"><g transform="translate(170.890745, 393.875043)"><g><path d="M 13.4375 0.3125 C 11.84375 0.3125 10.34375 0.015625 8.9375 -0.578125 C 7.539062 -1.171875 6.320312 -1.988281 5.28125 -3.03125 C 4.238281 -4.082031 3.414062 -5.304688 2.8125 -6.703125 C 2.21875 -8.097656 1.921875 -9.597656 1.921875 -11.203125 C 1.921875 -12.796875 2.21875 -14.289062 2.8125 -15.6875 C 3.414062 -17.09375 4.238281 -18.316406 5.28125 -19.359375 C 6.320312 -20.398438 7.539062 -21.21875 8.9375 -21.8125 C 10.34375 -22.414062 11.84375 -22.71875 13.4375 -22.71875 C 14.976562 -22.71875 16.3125 -22.472656 17.4375 -21.984375 C 18.570312 -21.492188 19.519531 -20.960938 20.28125 -20.390625 C 21.15625 -19.703125 21.914062 -18.929688 22.5625 -18.078125 L 20.953125 -16.640625 C 20.441406 -17.367188 19.828125 -18.007812 19.109375 -18.5625 C 18.484375 -19.050781 17.703125 -19.492188 16.765625 -19.890625 C 15.828125 -20.285156 14.71875 -20.484375 13.4375 -20.484375 C 12.15625 -20.484375 10.957031 -20.25 9.84375 -19.78125 C 8.738281 -19.3125 7.773438 -18.660156 6.953125 -17.828125 C 6.140625 -16.992188 5.492188 -16.007812 5.015625 -14.875 C 4.546875 -13.75 4.3125 -12.523438 4.3125 -11.203125 C 4.3125 -9.878906 4.546875 -8.648438 5.015625 -7.515625 C 5.492188 -6.390625 6.140625 -5.410156 6.953125 -4.578125 C 7.773438 -3.742188 8.738281 -3.09375 9.84375 -2.625 C 10.957031 -2.15625 12.15625 -1.921875 13.4375 -1.921875 C 14.71875 -1.921875 15.835938 -2.117188 16.796875 -2.515625 C 17.753906 -2.910156 18.554688 -3.351562 19.203125 -3.84375 C 19.941406 -4.394531 20.582031 -5.035156 21.125 -5.765625 L 22.71875 -4.3125 C 22.0625 -3.445312 21.273438 -2.671875 20.359375 -1.984375 C 19.566406 -1.410156 18.597656 -0.882812 17.453125 -0.40625 C 16.316406 0.0703125 14.976562 0.3125 13.4375 0.3125 Z M 13.4375 0.3125 "/></g></g></g><g fill="#ffffff" fill-opacity="1"><g transform="translate(211.524862, 393.875043)"><g><path d="M 3.359375 -22.40625 L 5.765625 -22.40625 L 5.765625 -12.484375 L 18.234375 -12.484375 L 18.234375 -22.40625 L 20.640625 -22.40625 L 20.640625 0 L 18.234375 0 L 18.234375 -10.234375 L 5.765625 -10.234375 L 5.765625 0 L 3.359375 0 Z M 3.359375 -22.40625 "/></g></g></g><g fill="#ffffff" fill-opacity="1"><g transform="translate(252.158979, 393.875043)"><g><path d="M 9.921875 -22.40625 L 12.15625 -22.40625 L 21.4375 0 L 18.875 0 L 16.3125 -6.234375 L 5.765625 -6.234375 L 3.203125 0 L 0.640625 0 Z M 15.359375 -8.484375 L 11.046875 -19.046875 L 6.71875 -8.484375 Z M 15.359375 -8.484375 "/></g></g></g><g fill="#ffffff" fill-opacity="1"><g transform="translate(290.873574, 393.875043)"><g><path d="M 3.359375 -22.40625 L 5.4375 -22.40625 L 19.203125 -4.3125 L 19.203125 -22.40625 L 21.59375 -22.40625 L 21.59375 0 L 19.515625 0 L 5.765625 -18.078125 L 5.765625 0 L 3.359375 0 Z M 3.359375 -22.40625 "/></g></g></g><g fill="#ffffff" fill-opacity="1"><g transform="translate(332.467444, 393.875043)"><g><path d="M 3.359375 -22.40625 L 5.4375 -22.40625 L 19.203125 -4.3125 L 19.203125 -22.40625 L 21.59375 -22.40625 L 21.59375 0 L 19.515625 0 L 5.765625 -18.078125 L 5.765625 0 L 3.359375 0 Z M 3.359375 -22.40625 "/></g></g></g><g fill="#ffffff" fill-opacity="1"><g transform="translate(374.061314, 393.875043)"><g><path d="M 3.359375 -22.40625 L 18.71875 -22.40625 L 18.71875 -20.15625 L 5.765625 -20.15625 L 5.765625 -12.796875 L 16.15625 -12.796875 L 16.15625 -10.5625 L 5.765625 -10.5625 L 5.765625 -2.234375 L 19.046875 -2.234375 L 19.046875 0 L 3.359375 0 Z M 3.359375 -22.40625 "/></g></g></g><g fill="#ffffff" fill-opacity="1"><g transform="translate(411.176287, 393.875043)"><g><path d="M 3.359375 -22.40625 L 5.765625 -22.40625 L 5.765625 -2.234375 L 17.28125 -2.234375 L 17.28125 0 L 3.359375 0 Z M 3.359375 -22.40625 "/></g></g></g></svg>